<svg width="33" height="32" viewBox="0 0 33 32" fill="none" xmlns="http://www.w3.org/2000/svg">
<rect x="0.75" width="32" height="32" rx="16" fill="#F0B90B"/>
<path d="M16.6411 5.33594L10.6816 8.65903L12.8726 9.88673L16.6411 7.79126L20.4095 9.88673L22.6005 8.65903L16.6411 5.33594Z" fill="white"/>
<path d="M20.4095 11.625L22.6005 12.8527V15.308L18.832 17.4035V21.5945L16.6411 22.8221L14.4501 21.5945V17.4035L10.6816 15.308V12.8527L12.8726 11.625L16.6411 13.7205L20.4095 11.625Z" fill="white"/>
<path d="M22.5972 17.0391V19.4944L20.4062 20.7221V18.2668L22.5972 17.0391Z" fill="white"/>
<path d="M20.3848 22.4594L24.1533 20.364V16.173L26.3442 14.9453V21.5917L20.3848 24.9148V22.4594Z" fill="white"/>
<path d="M24.1481 11.9866L21.957 10.759L24.1481 9.53125L26.339 10.759V13.2143L24.1481 14.4419V11.9866Z" fill="white"/>
<path d="M14.4473 25.8069V23.3516L16.6383 24.5792L18.8292 23.3516V25.8069L16.6383 27.0345L14.4473 25.8069Z" fill="white"/>
<path d="M12.8726 20.7221L10.6816 19.4944V17.0391L12.8726 18.2668V20.7221Z" fill="white"/>
<path d="M16.6383 11.9866L14.4473 10.759L16.6383 9.53125L18.8292 10.759L16.6383 11.9866Z" fill="white"/>
<path d="M11.3136 10.759L9.12259 11.9866V14.4419L6.93164 13.2143V10.759L9.12259 9.53125L11.3136 10.759Z" fill="white"/>
<path d="M6.93164 14.9453L9.12259 16.173V20.364L12.8911 22.4594V24.9148L6.93164 21.5917V14.9453Z" fill="white"/>
</svg>
