<svg width="33" height="32" viewBox="0 0 33 32" fill="none" xmlns="http://www.w3.org/2000/svg">
<g clip-path="url(#clip0_240_19514)">
<path d="M32.25 16C32.25 7.16344 25.0866 0 16.25 0C7.41344 0 0.25 7.16344 0.25 16C0.25 24.8366 7.41344 32 16.25 32C25.0866 32 32.25 24.8366 32.25 16Z" fill="#0052FF"/>
<path d="M16.2319 27.1268C22.3914 27.1268 27.3846 22.1437 27.3846 15.997C27.3846 9.85016 22.3914 4.86719 16.2319 4.86719C10.3882 4.86719 5.59428 9.35241 5.11816 15.0614H19.8594V16.9325H5.11816C5.59428 22.6416 10.3882 27.1268 16.2319 27.1268Z" fill="white"/>
</g>
<defs>
<clipPath id="clip0_240_19514">
<rect x="0.25" width="32" height="32" rx="16" fill="white"/>
</clipPath>
</defs>
</svg>
