<svg width="33" height="32" viewBox="0 0 33 32" fill="none" xmlns="http://www.w3.org/2000/svg">
<rect x="0.75" width="32" height="32" rx="16" fill="black"/>
<path d="M26.1522 20.6149L23.0156 23.7821C22.9474 23.8509 22.8649 23.9057 22.7733 23.9432C22.6816 23.9807 22.5827 24.0001 22.4828 24H7.61413C7.54318 24 7.47378 23.9805 7.41445 23.9439C7.35513 23.9072 7.30846 23.8551 7.28018 23.7938C7.2519 23.7325 7.24324 23.6648 7.25527 23.599C7.26731 23.5332 7.2995 23.4721 7.3479 23.4232L10.4868 20.256C10.5548 20.1874 10.637 20.1326 10.7284 20.0952C10.8198 20.0577 10.9184 20.0383 11.018 20.0381H25.8859C25.9568 20.0381 26.0262 20.0576 26.0856 20.0942C26.1448 20.1309 26.1915 20.183 26.2199 20.2443C26.2481 20.3056 26.2568 20.3733 26.2447 20.4391C26.2327 20.5049 26.2005 20.566 26.1522 20.6149ZM23.0156 14.2369C22.9474 14.1681 22.8649 14.1133 22.7733 14.0758C22.6816 14.0383 22.5827 14.019 22.4828 14.0191H7.61413C7.54318 14.0191 7.47378 14.0386 7.41445 14.0752C7.35513 14.1118 7.30846 14.164 7.28018 14.2252C7.2519 14.2865 7.24324 14.3542 7.25527 14.4201C7.26731 14.4859 7.2995 14.547 7.3479 14.5958L10.4868 17.7631C10.5548 17.8317 10.637 17.8864 10.7284 17.9239C10.8198 17.9614 10.9184 17.9808 11.018 17.9809H25.8859C25.9568 17.9809 26.0262 17.9614 26.0856 17.9248C26.1448 17.8882 26.1915 17.836 26.2199 17.7748C26.2481 17.7135 26.2568 17.6458 26.2447 17.5799C26.2327 17.5141 26.2005 17.453 26.1522 17.4042L23.0156 14.2369ZM7.61413 11.9619H22.4828C22.5827 11.9619 22.6816 11.9426 22.7733 11.9051C22.8649 11.8677 22.9474 11.8128 23.0156 11.744L26.1522 8.57676C26.2005 8.52792 26.2327 8.46683 26.2447 8.401C26.2568 8.33517 26.2481 8.26746 26.2199 8.2062C26.1915 8.14493 26.1448 8.09278 26.0856 8.05615C26.0262 8.01952 25.9568 8 25.8859 8H11.018C10.9184 8.00016 10.8198 8.01958 10.7284 8.05706C10.637 8.09455 10.5548 8.14929 10.4868 8.21791L7.34871 11.3851C7.30036 11.4339 7.26818 11.495 7.25612 11.5607C7.24406 11.6265 7.25265 11.6941 7.28082 11.7554C7.309 11.8166 7.35555 11.8687 7.41476 11.9054C7.47396 11.9421 7.54325 11.9617 7.61413 11.9619Z" fill="url(#paint0_linear_51_14024)"/>
<defs>
<linearGradient id="paint0_linear_51_14024" x1="8.85382" y1="24.3813" x2="23.404" y2="6.96107" gradientUnits="userSpaceOnUse">
<stop offset="0.08" stop-color="#9945FF"/>
<stop offset="0.3" stop-color="#8752F3"/>
<stop offset="0.5" stop-color="#5497D5"/>
<stop offset="0.6" stop-color="#43B4CA"/>
<stop offset="0.72" stop-color="#28E0B9"/>
<stop offset="0.97" stop-color="#19FB9B"/>
</linearGradient>
</defs>
</svg>
